<svg width="0" height="0" class="hidden">
  <symbol id="close" fill="none" stroke="currentColor" xmlns="http://www.w3.org/2000/svg" viewBox="0 0 24 24"
    stroke-width="3" stroke-linecap="round" stroke-linejoin="round">
    <title id="close-title">Close</title>
    <line x1="18" y1="6" x2="6" y2="18" />
    <line x1="6" y1="6" x2="18" y2="18" />
  </symbol>

  <symbol id="arrow" fill="none" xmlns="http://www.w3.org/2000/svg" viewBox="0 0 16 16">
    <title id="arrow-title">Learn more</title>
    <path fill="currentColor" d="M8 0L6.59 1.41L12.17 7H0V9H12.17L6.59 14.59L8 16L16 8L8 0Z">
    </path>
  </symbol>

  <symbol id="menu" fill="none" xmlns="http://www.w3.org/2000/svg" viewBox="0 0 32 32">
    <title id="menu-title">Menu</title>
    <path fill="currentColor" d="M4 24H28V21.3333H4V24ZM4 17.3333H28V14.6667H4V17.3333ZM4 8V10.6667H28V8H4Z">
    </path>
  </symbol>

  <symbol id="logo" fill="none" xmlns="http://www.w3.org/2000/svg" viewBox="0 0 48 32">
    <title id="logo-title">Afrianska</title>
    <circle id="logo-disk" cx="16" cy="16" r="16"></circle>
    <circle cx="32" cy="16" r="15" fill="#FFF" stroke="currentColor" stroke-width="2"></circle>
    <path fill="currentColor" d="M39.3 22L34.38 8H30.96L26.06 22H29.04L29.88 19.48H35.46L36.3 22H39.3ZM32.68 11.18L34.6 16.9H30.76L32.68 11.18Z">
    </path>
  </symbol>

  <symbol id="logo2" fill="none" xmlns="http://www.w3.org/2000/svg" viewBox="0 0 48 32">
    <title id="logo2-title">Afrianska</title>
    <circle cx="16" cy="16" r="16" fill="#98C3E8"></circle>
    <circle cx="32" cy="16" r="15" fill="#FFF" stroke="#316099" stroke-width="2"></circle>
    <path fill="#316099" d="M38.3 23L33.38 9H29.96L25.06 23H28.04L28.88 20.48H34.46L35.3 23H38.3ZM31.68 12.18L33.6 17.9H29.76L31.68 12.18Z">
    </path>
  </symbol>


</svg>